<svg width="20" height="32" viewBox="0 0 20 32" fill="none" xmlns="http://www.w3.org/2000/svg">
<path d="M4.66016 15.4375C4.83594 14.3477 5.57422 13.4336 6.52344 12.9766C6.27734 13.6445 6.10156 14.4883 6.03125 15.4375H4.66016ZM4.66016 16.5625H6.03125C6.10156 17.5469 6.27734 18.3906 6.52344 19.0586C5.57422 18.6016 4.83594 17.6875 4.66016 16.5625ZM8 19.3398C7.71875 19.0938 7.26172 18.1445 7.15625 16.5625H8.80859C8.70312 18.1445 8.24609 19.0938 8 19.3398ZM7.15625 15.4375C7.26172 13.8906 7.71875 12.9414 8 12.6953C8.24609 12.9414 8.70312 13.8906 8.80859 15.4375H7.15625ZM9.44141 19.0586C9.6875 18.3906 9.86328 17.5469 9.93359 16.5625H11.3047C11.1289 17.6875 10.3906 18.6016 9.44141 19.0586ZM14.75 9.25C15.3477 9.25 15.875 9.77734 15.875 10.375V26.125C15.875 26.7578 15.3477 27.25 14.75 27.25H2.375C1.10938 27.25 0.125 26.2656 0.125 25V11.5C0.125 10.2695 1.10938 9.25 2.375 9.25H14.75ZM11.9375 23.875C12.2188 23.875 12.5 23.6289 12.5 23.3125C12.5 23.0312 12.2188 22.75 11.9375 22.75H4.0625C3.74609 22.75 3.5 23.0312 3.5 23.3125C3.5 23.6289 3.74609 23.875 4.0625 23.875H11.9375ZM8 20.5C10.4609 20.5 12.5 18.4961 12.5 16C12.5 13.5391 10.4609 11.5 8 11.5C5.50391 11.5 3.5 13.5391 3.5 16C3.5 18.4961 5.50391 20.5 8 20.5ZM9.44141 12.9766C10.3906 13.4336 11.1289 14.3477 11.3047 15.4375H9.93359C9.86328 14.4883 9.6875 13.6445 9.44141 12.9766Z" fill="#9CA3AF"/>
<rect x="12.5" y="0.5" width="7" height="7" rx="3.5" fill="#EF4444" stroke="white"/>
</svg>
