<svg width="40" height="40" viewBox="0 0 40 40" fill="none" xmlns="http://www.w3.org/2000/svg">
<path d="M39.6065 33.4501C33.7386 22.7313 27.8698 12.0126 22.0002 1.29381C21.8045 0.922857 21.5113 0.61235 21.1521 0.395756C20.793 0.179163 20.3815 0.0646973 19.9621 0.0646973C19.5427 0.0646973 19.1312 0.179163 18.7721 0.395756C18.4129 0.61235 18.1197 0.922857 17.924 1.29381C12.0559 12.0126 6.18274 22.7313 0.317741 33.4501C-0.590384 35.1057 0.567116 37.2519 2.35399 37.2519H37.5727C38.5627 37.2519 39.2277 36.7188 39.5746 35.9957C40.0109 35.3069 40.1277 34.3926 39.609 33.4488" fill="#FFDD15"/>
<path d="M18.0731 21.5481L17.5175 13.2594C17.4146 11.6448 17.3634 10.4854 17.3638 9.78124C17.3638 8.82248 17.6138 8.07686 18.115 7.53874C18.6179 7.00332 19.2794 6.7354 20.0994 6.73499C21.0888 6.73499 21.7531 7.07936 22.0856 7.76374C22.4219 8.45207 22.5904 9.44186 22.5913 10.7331C22.5913 11.4931 22.55 12.2656 22.4675 13.0506L21.7238 21.5812C21.6434 22.5975 21.4711 23.3764 21.2069 23.9181C20.9406 24.4625 20.5019 24.7312 19.8888 24.7312C19.2688 24.7312 18.8325 24.4694 18.5938 23.9456C18.3481 23.42 18.1763 22.6206 18.0731 21.5481ZM19.9931 32.9337C19.2902 32.9346 18.6763 32.7069 18.1513 32.2506C17.6263 31.7952 17.3638 31.1581 17.3638 30.3394C17.3638 29.625 17.6138 29.0144 18.115 28.5137C18.6181 28.01 19.2313 27.76 19.9594 27.76C20.6875 27.76 21.305 28.01 21.82 28.5137C22.3294 29.0144 22.5913 29.625 22.5913 30.3394C22.5913 31.1456 22.3294 31.7819 21.8125 32.2419C21.3155 32.6944 20.6653 32.9416 19.9931 32.9337Z" fill="#1F2E35"/>
</svg>
