<svg width="16" height="18" viewBox="0 0 16 18" fill="none" xmlns="http://www.w3.org/2000/svg">
<path d="M7.875 9C5.37891 9 3.375 6.99609 3.375 4.5C3.375 2.03906 5.37891 0 7.875 0C10.3359 0 12.375 2.03906 12.375 4.5C12.375 6.99609 10.3359 9 7.875 9ZM11.0039 10.125C13.6055 10.125 15.75 12.2695 15.75 14.8711V16.3125C15.75 17.2617 14.9766 18 14.0625 18H1.6875C0.738281 18 0 17.2617 0 16.3125V14.8711C0 12.2695 2.10938 10.125 4.71094 10.125H5.30859C6.08203 10.5117 6.96094 10.6875 7.875 10.6875C8.78906 10.6875 9.63281 10.5117 10.4062 10.125H11.0039Z" fill="#9CA3AF"/>
</svg>
