<svg width="21" height="16" viewBox="0 0 21 16" fill="none" xmlns="http://www.w3.org/2000/svg">
<path d="M9.875 4.07812C9.94531 4.00781 10.0508 3.97266 10.1562 3.97266C10.2266 3.97266 10.332 4.00781 10.4023 4.07812L16.9062 9.38672V15.1523C16.9062 15.4688 16.625 15.7148 16.3438 15.7148H12.3711C12.0898 15.7148 11.8086 15.4688 11.8086 15.1523V11.7773C11.8086 11.4961 11.5625 11.2148 11.2461 11.2148H8.99609C8.71484 11.2148 8.43359 11.4961 8.43359 11.7773V15.1523C8.43359 15.4688 8.1875 15.7148 7.90625 15.7148H3.96875C3.65234 15.7148 3.40625 15.4688 3.40625 15.1523V9.42188L9.875 4.07812ZM20.1055 7.69922C20.2109 7.76953 20.2812 7.91016 20.2812 8.01562C20.2812 8.12109 20.2461 8.22656 20.1758 8.29688L19.2617 9.38672C19.1914 9.49219 19.0859 9.52734 18.9453 9.52734C18.8398 9.52734 18.7344 9.49219 18.6641 9.42188L10.4023 2.63672C10.332 2.56641 10.2266 2.53125 10.1562 2.53125C10.0508 2.53125 9.94531 2.56641 9.875 2.63672L1.61328 9.42188C1.54297 9.49219 1.4375 9.52734 1.33203 9.52734C1.19141 9.52734 1.08594 9.49219 1.01562 9.38672L0.101562 8.29688C0.0664062 8.22656 -0.00390625 8.12109 -0.00390625 8.01562C-0.00390625 7.91016 0.0664062 7.76953 0.171875 7.69922L9.06641 0.351562C9.34766 0.140625 9.73438 0 10.1562 0C10.543 0 10.9297 0.140625 11.2109 0.351562L14.375 2.95312V0.421875C14.375 0.175781 14.5508 0 14.7969 0H16.7656C16.9766 0 17.1875 0.175781 17.1875 0.421875V5.27344L20.1055 7.69922Z" fill="#9CA3AF"/>
</svg>
