<svg width="40" height="40" viewBox="0 0 40 40" fill="none" xmlns="http://www.w3.org/2000/svg">
<path d="M0 30C0 31.1788 0.468253 32.3092 1.30175 33.1427C2.13524 33.9762 3.2657 34.4445 4.44444 34.4445H35.5556C36.7343 34.4445 37.8648 33.9762 38.6983 33.1427C39.5317 32.3092 40 31.1788 40 30V24.4445H0V30Z" fill="#138808"/>
<path d="M40 15.5555V9.99999C40 8.82125 39.5317 7.69078 38.6983 6.85729C37.8648 6.02379 36.7343 5.55554 35.5556 5.55554H4.44444C3.2657 5.55554 2.13524 6.02379 1.30175 6.85729C0.468253 7.69078 0 8.82125 0 9.99999L0 15.5555H40Z" fill="#FF9933"/>
<path d="M0 15.1855H40V24.8155H0V15.1855Z" fill="#F7F7F7"/>
<path d="M20.0001 24.4444C22.4547 24.4444 24.4446 22.4546 24.4446 20C24.4446 17.5454 22.4547 15.5555 20.0001 15.5555C17.5455 15.5555 15.5557 17.5454 15.5557 20C15.5557 22.4546 17.5455 24.4444 20.0001 24.4444Z" fill="#000080"/>
<path d="M20 23.75C22.0711 23.75 23.75 22.0711 23.75 20C23.75 17.9289 22.0711 16.25 20 16.25C17.9289 16.25 16.25 17.9289 16.25 20C16.25 22.0711 17.9289 23.75 20 23.75Z" fill="#F7F7F7"/>
<path d="M20.111 18.6111L19.9999 19.3333L19.8888 18.6111L19.9999 16.4445L20.111 18.6111ZM19.0799 16.5656L19.5332 18.6867L19.8277 19.3556L19.7477 18.63L19.0799 16.5656ZM18.2221 16.9211L19.2088 18.8522L19.6666 19.4222L19.4021 18.7411L18.2221 16.9211ZM17.4854 17.4856L18.9388 19.0967L19.5288 19.5289L19.0966 18.9389L17.4854 17.4856ZM16.921 18.2222L18.741 19.4022L19.4221 19.6667L18.8521 19.2089L16.921 18.2222ZM16.5654 19.08L18.6299 19.7478L19.3554 19.8278L18.6866 19.5333L16.5654 19.08ZM16.4443 20L18.611 20.1111L19.3332 20L18.611 19.8889L16.4443 20ZM16.5654 20.92L18.6866 20.4667L19.3554 20.1722L18.6299 20.2522L16.5654 20.92ZM16.921 21.7778L18.8521 20.7911L19.4221 20.3333L18.741 20.5978L16.921 21.7778ZM17.4854 22.5145L19.0966 21.0611L19.5288 20.4711L18.9388 20.9033L17.4854 22.5145ZM18.2221 23.0789L19.4021 21.2589L19.6666 20.5778L19.2088 21.1478L18.2221 23.0789ZM19.0799 23.4345L19.7477 21.37L19.8277 20.6445L19.5332 21.3133L19.0799 23.4345ZM19.9999 23.5556L20.111 21.3889L19.9999 20.6667L19.8888 21.3889L19.9999 23.5556ZM20.9199 23.4345L20.4666 21.3133L20.1721 20.6445L20.2521 21.37L20.9199 23.4345ZM21.7777 23.0789L20.791 21.1478L20.3332 20.5778L20.5977 21.2589L21.7777 23.0789ZM22.5143 22.5145L21.061 20.9033L20.471 20.4711L20.9032 21.0611L22.5143 22.5145ZM23.0788 21.7778L21.2588 20.5978L20.5777 20.3333L21.1477 20.7911L23.0788 21.7778ZM23.4343 20.92L21.3699 20.2522L20.6443 20.1722L21.3132 20.4667L23.4343 20.92ZM23.5554 20L21.3888 19.8889L20.6666 20L21.3888 20.1111L23.5554 20ZM23.4343 19.08L21.3132 19.5333L20.6443 19.8278L21.3699 19.7478L23.4343 19.08ZM23.0788 18.2222L21.1477 19.2089L20.5777 19.6667L21.2588 19.4022L23.0788 18.2222ZM22.5143 17.4856L20.9032 18.9389L20.471 19.5289L21.061 19.0967L22.5143 17.4856ZM21.7777 16.9211L20.5977 18.7411L20.3332 19.4222L20.791 18.8522L21.7777 16.9211ZM20.9199 16.5656L20.2521 18.63L20.1721 19.3556L20.4666 18.6867L20.9199 16.5656Z" fill="#6666B3"/>
<path d="M19.5108 16.51C19.6335 16.51 19.733 16.4105 19.733 16.2878C19.733 16.165 19.6335 16.0656 19.5108 16.0656C19.3881 16.0656 19.2886 16.165 19.2886 16.2878C19.2886 16.4105 19.3881 16.51 19.5108 16.51Z" fill="#000080"/>
<path d="M18.5665 16.7634C18.6892 16.7634 18.7887 16.6639 18.7887 16.5411C18.7887 16.4184 18.6892 16.3189 18.5665 16.3189C18.4437 16.3189 18.3442 16.4184 18.3442 16.5411C18.3442 16.6639 18.4437 16.7634 18.5665 16.7634Z" fill="#000080"/>
<path d="M17.7198 17.2511C17.8425 17.2511 17.942 17.1516 17.942 17.0289C17.942 16.9061 17.8425 16.8066 17.7198 16.8066C17.5971 16.8066 17.4976 16.9061 17.4976 17.0289C17.4976 17.1516 17.5971 17.2511 17.7198 17.2511Z" fill="#000080"/>
<path d="M17.0289 17.9422C17.1516 17.9422 17.2511 17.8428 17.2511 17.72C17.2511 17.5973 17.1516 17.4978 17.0289 17.4978C16.9061 17.4978 16.8066 17.5973 16.8066 17.72C16.8066 17.8428 16.9061 17.9422 17.0289 17.9422Z" fill="#000080"/>
<path d="M16.5411 18.7889C16.6638 18.7889 16.7633 18.6894 16.7633 18.5666C16.7633 18.4439 16.6638 18.3444 16.5411 18.3444C16.4183 18.3444 16.3188 18.4439 16.3188 18.5666C16.3188 18.6894 16.4183 18.7889 16.5411 18.7889Z" fill="#000080"/>
<path d="M16.2877 19.7333C16.4104 19.7333 16.5099 19.6338 16.5099 19.5111C16.5099 19.3884 16.4104 19.2889 16.2877 19.2889C16.1649 19.2889 16.0654 19.3884 16.0654 19.5111C16.0654 19.6338 16.1649 19.7333 16.2877 19.7333Z" fill="#000080"/>
<path d="M16.2877 20.7111C16.4104 20.7111 16.5099 20.6116 16.5099 20.4889C16.5099 20.3662 16.4104 20.2667 16.2877 20.2667C16.1649 20.2667 16.0654 20.3662 16.0654 20.4889C16.0654 20.6116 16.1649 20.7111 16.2877 20.7111Z" fill="#000080"/>
<path d="M16.5411 21.6556C16.6638 21.6556 16.7633 21.5561 16.7633 21.4333C16.7633 21.3106 16.6638 21.2111 16.5411 21.2111C16.4183 21.2111 16.3188 21.3106 16.3188 21.4333C16.3188 21.5561 16.4183 21.6556 16.5411 21.6556Z" fill="#000080"/>
<path d="M17.0289 22.5022C17.1516 22.5022 17.2511 22.4028 17.2511 22.28C17.2511 22.1573 17.1516 22.0578 17.0289 22.0578C16.9061 22.0578 16.8066 22.1573 16.8066 22.28C16.8066 22.4028 16.9061 22.5022 17.0289 22.5022Z" fill="#000080"/>
<path d="M17.7198 23.1933C17.8425 23.1933 17.942 23.0939 17.942 22.9711C17.942 22.8484 17.8425 22.7489 17.7198 22.7489C17.5971 22.7489 17.4976 22.8484 17.4976 22.9711C17.4976 23.0939 17.5971 23.1933 17.7198 23.1933Z" fill="#000080"/>
<path d="M18.5665 23.6811C18.6892 23.6811 18.7887 23.5816 18.7887 23.4589C18.7887 23.3361 18.6892 23.2366 18.5665 23.2366C18.4437 23.2366 18.3442 23.3361 18.3442 23.4589C18.3442 23.5816 18.4437 23.6811 18.5665 23.6811Z" fill="#000080"/>
<path d="M19.5108 23.9344C19.6335 23.9344 19.733 23.8349 19.733 23.7122C19.733 23.5895 19.6335 23.49 19.5108 23.49C19.3881 23.49 19.2886 23.5895 19.2886 23.7122C19.2886 23.8349 19.3881 23.9344 19.5108 23.9344Z" fill="#000080"/>
<path d="M20.4888 23.9344C20.6116 23.9344 20.711 23.8349 20.711 23.7122C20.711 23.5895 20.6116 23.49 20.4888 23.49C20.3661 23.49 20.2666 23.5895 20.2666 23.7122C20.2666 23.8349 20.3661 23.9344 20.4888 23.9344Z" fill="#000080"/>
<path d="M21.4332 23.6811C21.5559 23.6811 21.6554 23.5816 21.6554 23.4589C21.6554 23.3361 21.5559 23.2366 21.4332 23.2366C21.3104 23.2366 21.2109 23.3361 21.2109 23.4589C21.2109 23.5816 21.3104 23.6811 21.4332 23.6811Z" fill="#000080"/>
<path d="M22.2798 23.1933C22.4026 23.1933 22.5021 23.0939 22.5021 22.9711C22.5021 22.8484 22.4026 22.7489 22.2798 22.7489C22.1571 22.7489 22.0576 22.8484 22.0576 22.9711C22.0576 23.0939 22.1571 23.1933 22.2798 23.1933Z" fill="#000080"/>
<path d="M22.9708 22.5022C23.0935 22.5022 23.193 22.4028 23.193 22.28C23.193 22.1573 23.0935 22.0578 22.9708 22.0578C22.848 22.0578 22.7485 22.1573 22.7485 22.28C22.7485 22.4028 22.848 22.5022 22.9708 22.5022Z" fill="#000080"/>
<path d="M23.4586 21.6556C23.5813 21.6556 23.6808 21.5561 23.6808 21.4333C23.6808 21.3106 23.5813 21.2111 23.4586 21.2111C23.3358 21.2111 23.2363 21.3106 23.2363 21.4333C23.2363 21.5561 23.3358 21.6556 23.4586 21.6556Z" fill="#000080"/>
<path d="M23.712 20.7111C23.8347 20.7111 23.9342 20.6116 23.9342 20.4889C23.9342 20.3662 23.8347 20.2667 23.712 20.2667C23.5892 20.2667 23.4897 20.3662 23.4897 20.4889C23.4897 20.6116 23.5892 20.7111 23.712 20.7111Z" fill="#000080"/>
<path d="M23.712 19.7333C23.8347 19.7333 23.9342 19.6338 23.9342 19.5111C23.9342 19.3884 23.8347 19.2889 23.712 19.2889C23.5892 19.2889 23.4897 19.3884 23.4897 19.5111C23.4897 19.6338 23.5892 19.7333 23.712 19.7333Z" fill="#000080"/>
<path d="M23.4586 18.7889C23.5813 18.7889 23.6808 18.6894 23.6808 18.5666C23.6808 18.4439 23.5813 18.3444 23.4586 18.3444C23.3358 18.3444 23.2363 18.4439 23.2363 18.5666C23.2363 18.6894 23.3358 18.7889 23.4586 18.7889Z" fill="#000080"/>
<path d="M22.9708 17.9422C23.0935 17.9422 23.193 17.8428 23.193 17.72C23.193 17.5973 23.0935 17.4978 22.9708 17.4978C22.848 17.4978 22.7485 17.5973 22.7485 17.72C22.7485 17.8428 22.848 17.9422 22.9708 17.9422Z" fill="#000080"/>
<path d="M22.2798 17.2511C22.4026 17.2511 22.5021 17.1516 22.5021 17.0289C22.5021 16.9061 22.4026 16.8066 22.2798 16.8066C22.1571 16.8066 22.0576 16.9061 22.0576 17.0289C22.0576 17.1516 22.1571 17.2511 22.2798 17.2511Z" fill="#000080"/>
<path d="M21.4332 16.7634C21.5559 16.7634 21.6554 16.6639 21.6554 16.5411C21.6554 16.4184 21.5559 16.3189 21.4332 16.3189C21.3104 16.3189 21.2109 16.4184 21.2109 16.5411C21.2109 16.6639 21.3104 16.7634 21.4332 16.7634Z" fill="#000080"/>
<path d="M20.4888 16.51C20.6116 16.51 20.711 16.4105 20.711 16.2878C20.711 16.165 20.6116 16.0656 20.4888 16.0656C20.3661 16.0656 20.2666 16.165 20.2666 16.2878C20.2666 16.4105 20.3661 16.51 20.4888 16.51Z" fill="#000080"/>
<path d="M20 21C20.5523 21 21 20.5523 21 20C21 19.4477 20.5523 19 20 19C19.4477 19 19 19.4477 19 20C19 20.5523 19.4477 21 20 21Z" fill="#000080"/>
</svg>
