<svg width="40" height="40" viewBox="0 0 40 40" fill="none" xmlns="http://www.w3.org/2000/svg">
<path d="M1.25789 33.8654C5.26234 34.7977 9.26688 34.7635 13.2713 34.3848V34.3733C21.6111 33.5216 29.9509 31.0355 38.2907 33.0414C39.0676 33.2283 39.8141 32.6369 39.8141 31.8379V7.34608C39.8141 7.29671 39.8102 7.24819 39.8045 7.20015C39.6134 6.69499 39.1664 6.25538 38.6455 6.1346C31.0323 4.3621 23.419 6.08069 15.8058 7.02514C14.961 7.13858 14.1163 7.24179 13.2715 7.32811V7.30468C9.26703 7.68343 5.2625 7.71764 1.25805 6.7853C0.563203 6.62421 0 7.02264 0 7.7178V32.2822C0 32.9764 0.563203 33.7044 1.25789 33.8654Z" fill="#0B67B2"/>
<path d="M39.8138 7.22906C39.6291 6.71195 39.1761 6.25757 38.6451 6.13453C34.6109 5.19531 30.5767 5.23687 26.5425 5.62359V32.7037C30.5767 32.317 34.6109 32.2755 38.6451 33.2147C39.176 33.3377 39.6291 33.1334 39.8138 32.7203V7.22906Z" fill="#FF473E"/>
<path d="M13.2715 34.3848C17.6952 33.9663 22.1191 33.1278 26.5428 32.7038V5.6236C22.1191 6.04766 17.6952 6.88617 13.2715 7.30461V34.3848Z" fill="#E8E8E8"/>
</svg>
