<svg width="40" height="40" viewBox="0 0 40 40" fill="none" xmlns="http://www.w3.org/2000/svg">
<path d="M39.9998 30C39.9998 31.1787 39.5316 32.3092 38.6981 33.1427C37.8646 33.9762 36.7341 34.4444 35.5554 34.4444H26.6665V5.55554H35.5554C36.7341 5.55554 37.8646 6.02379 38.6981 6.85729C39.5316 7.69078 39.9998 8.82125 39.9998 9.99999V30Z" fill="#CE2B37"/>
<path d="M4.44444 5.55554C3.2657 5.55554 2.13524 6.02379 1.30175 6.85729C0.468253 7.69078 0 8.82125 0 9.99999L0 30C0 31.1787 0.468253 32.3092 1.30175 33.1427C2.13524 33.9762 3.2657 34.4444 4.44444 34.4444H13.3333V5.55554H4.44444Z" fill="#009246"/>
<path d="M13.3335 5.55554H26.6668V34.4444H13.3335V5.55554Z" fill="#EEEEEE"/>
</svg>
