<svg width="40" height="40" viewBox="0 0 40 40" fill="none" xmlns="http://www.w3.org/2000/svg">
<path d="M40 30C40 31.1787 39.5317 32.3092 38.6983 33.1427C37.8648 33.9762 36.7343 34.4444 35.5556 34.4444H4.44444C3.2657 34.4444 2.13524 33.9762 1.30175 33.1427C0.468253 32.3092 0 31.1787 0 30V9.99999C0 8.82125 0.468253 7.69078 1.30175 6.85729C2.13524 6.02379 3.2657 5.55554 4.44444 5.55554H35.5556C36.7343 5.55554 37.8648 6.02379 38.6983 6.85729C39.5317 7.69078 40 8.82125 40 9.99999V30Z" fill="#DE2910"/>
<path d="M12.3732 9.97442L13.191 10.37L13.8455 9.74109L13.7221 10.6411L14.5221 11.07L13.6288 11.23L13.4688 12.1233L13.0399 11.3233L12.1399 11.4466L12.7688 10.7922L12.3732 9.97442ZM17.5566 13.2422L17.161 14.0589L17.7899 14.7144L16.891 14.59L16.4621 15.3911L16.3021 14.4966L15.4077 14.3366L16.2088 13.9078L16.0844 13.0089L16.7399 13.6378L17.5566 13.2422ZM16.4932 17.4411L16.791 18.2989L17.6988 18.3178L16.9755 18.8655L17.2388 19.7355L16.4932 19.2166L15.7477 19.7355L16.0099 18.8655L15.2866 18.3178L16.1944 18.2989L16.4932 17.4411ZM12.3732 21.0855L13.191 21.4811L13.8455 20.8522L13.7221 21.7522L14.5221 22.1811L13.6288 22.3411L13.4688 23.2344L13.0399 22.4344L12.1399 22.5578L12.7688 21.9033L12.3732 21.0855ZM7.77769 12.1678L8.80991 15.1355L11.9499 15.2L9.44658 17.0978L10.3566 20.1044L7.77769 18.31L5.1988 20.1044L6.1088 17.0978L3.60547 15.2L6.74547 15.1355L7.77769 12.1678Z" fill="#FFDE02"/>
</svg>
