<svg width="40" height="40" viewBox="0 0 40 40" fill="none" xmlns="http://www.w3.org/2000/svg">
<path d="M0 30C0 31.1787 0.468253 32.3092 1.30175 33.1427C2.13524 33.9762 3.2657 34.4444 4.44444 34.4444H35.5556C36.7343 34.4444 37.8648 33.9762 38.6983 33.1427C39.5317 32.3092 40 31.1787 40 30V25.5555H0V30Z" fill="#FFCD05"/>
<path d="M0 15.5555H40V25.5555H0V15.5555Z" fill="#ED1F24"/>
<path d="M35.5556 5.55554H4.44444C3.2657 5.55554 2.13524 6.02379 1.30175 6.85729C0.468253 7.69078 0 8.82125 0 9.99999L0 15.5555H40V9.99999C40 8.82125 39.5317 7.69078 38.6983 6.85729C37.8648 6.02379 36.7343 5.55554 35.5556 5.55554Z" fill="#141414"/>
</svg>
