<svg width="18" height="28" viewBox="0 0 18 28" fill="none" xmlns="http://www.w3.org/2000/svg">
<path d="M17.3984 18.6797C17.6328 18.9141 17.75 19.2266 17.75 19.5C17.7109 20.1641 17.2422 20.75 16.4609 20.75H1.5C0.71875 20.75 0.25 20.1641 0.25 19.5C0.210938 19.2266 0.328125 18.9141 0.5625 18.6797C1.30469 17.8594 2.75 16.6484 2.75 12.625C2.75 9.61719 4.85938 7.19531 7.75 6.57031V5.75C7.75 5.08594 8.29688 4.5 9 4.5C9.66406 4.5 10.2109 5.08594 10.2109 5.75V6.57031C13.1016 7.19531 15.2109 9.61719 15.2109 12.625C15.2109 16.6484 16.6562 17.8594 17.3984 18.6797ZM2.86719 18.875H15.0938C14.2734 17.8203 13.375 15.9844 13.3359 12.6641C13.3359 12.6641 13.375 12.6641 13.375 12.625C13.375 10.2422 11.3828 8.25 9 8.25C6.57812 8.25 4.625 10.2422 4.625 12.625C4.625 12.6641 4.625 12.6641 4.625 12.6641C4.58594 15.9844 3.6875 17.8203 2.86719 18.875ZM9 24.5C7.59375 24.5 6.5 23.4062 6.5 22H11.4609C11.4609 23.4062 10.3672 24.5 9 24.5Z" fill="#6B7280"/>
<rect x="10.5" y="0.5" width="7" height="7" rx="3.5" fill="#EF4444" stroke="white"/>
</svg>
