<svg width="12" height="13" viewBox="0 0 12 13" fill="none" xmlns="http://www.w3.org/2000/svg">
<path d="M5.8125 0.6875C9.02344 0.6875 11.625 3.28906 11.625 6.5C11.625 9.71094 9.02344 12.3125 5.8125 12.3125C2.60156 12.3125 0 9.71094 0 6.5C0 3.28906 2.60156 0.6875 5.8125 0.6875ZM10.5 6.5C10.5 3.92188 8.39062 1.8125 5.78906 1.8125C5.74219 1.8125 5.71875 1.83594 5.67188 1.83594L4.99219 2.32812C4.94531 2.375 4.92188 2.42188 4.92188 2.49219V2.96094C4.92188 3.05469 4.99219 3.14844 5.10938 3.14844H5.48438C5.57812 3.14844 5.67188 3.05469 5.67188 2.96094V2.77344L6.04688 2.39844H6.51562C6.65625 2.39844 6.79688 2.51562 6.79688 2.65625C6.79688 2.72656 6.75 2.79688 6.70312 2.84375L6.07031 3.47656C6.04688 3.5 6.02344 3.52344 5.97656 3.54688L5.03906 3.85156C4.96875 3.875 4.92188 3.94531 4.92188 4.03906C4.92188 4.17969 4.85156 4.32031 4.73438 4.4375L4.26562 4.90625C4.19531 4.97656 4.17188 5.07031 4.17188 5.16406V5.77344C4.17188 5.98438 4.33594 6.14844 4.54688 6.14844H5.0625C5.20312 6.14844 5.32031 6.05469 5.39062 5.9375L5.60156 5.49219C5.64844 5.44531 5.71875 5.39844 5.78906 5.39844H5.85938C5.95312 5.39844 6.04688 5.46875 6.04688 5.58594C6.04688 5.67969 6.11719 5.77344 6.23438 5.77344H6.60938C6.70312 5.77344 6.79688 5.67969 6.79688 5.58594V5.53906C6.79688 5.44531 6.84375 5.375 6.91406 5.35156L7.66406 5.11719C7.80469 5.04688 7.92188 4.90625 7.92188 4.74219V4.64844C7.92188 4.4375 8.08594 4.27344 8.29688 4.27344H9.14062C9.30469 4.27344 9.42188 4.39062 9.42188 4.53125V4.76562C9.42188 4.90625 9.30469 5.02344 9.14062 5.02344H8.39062C8.32031 5.02344 8.25 5.04688 8.20312 5.09375L7.99219 5.32812C7.94531 5.375 7.92188 5.44531 7.92188 5.51562C7.92188 5.65625 8.03906 5.77344 8.17969 5.77344H8.55469C8.625 5.77344 8.69531 5.79688 8.74219 5.84375L8.95312 6.07812C9 6.125 9.04688 6.19531 9.04688 6.26562V6.45312L8.74219 6.75781C8.64844 6.85156 8.64844 7.03906 8.74219 7.13281L9.49219 7.90625C9.5625 7.97656 9.65625 8.02344 9.75 8.02344H10.2422C10.4062 7.55469 10.5 7.03906 10.5 6.5ZM3.04688 4.01562C3.04688 4.15625 3.16406 4.27344 3.30469 4.27344H3.67969C3.75 4.27344 3.82031 4.25 3.86719 4.20312L4.07812 3.96875C4.125 3.92188 4.17188 3.85156 4.17188 3.78125V3.40625C4.17188 3.26562 4.05469 3.14844 3.89062 3.14844C3.82031 3.14844 3.75 3.17188 3.70312 3.21875L3.11719 3.82812C3.07031 3.875 3.04688 3.94531 3.04688 4.01562ZM6.04688 11.1875C7.71094 11.0938 9.14062 10.1562 9.91406 8.77344H9.58594C9.46875 8.77344 9.375 8.72656 9.28125 8.65625L8.88281 8.23438C8.74219 8.09375 8.55469 8.02344 8.34375 8.02344H7.92188L6.91406 7.15625C6.72656 6.99219 6.46875 6.89844 6.21094 6.89844H5.48438C5.29688 6.89844 5.10938 6.94531 4.94531 7.03906L3.9375 7.64844C3.60938 7.83594 3.42188 8.1875 3.42188 8.5625V9.125C3.42188 9.45312 3.5625 9.78125 3.84375 9.96875L4.35938 10.3672C4.57031 10.5312 4.94531 10.6484 5.17969 10.6484H5.67188C5.85938 10.6484 6.04688 10.8125 6.04688 11.0234V11.1875Z" fill="white"/>
</svg>
