<svg width="18" height="14" viewBox="0 0 18 14" fill="none" xmlns="http://www.w3.org/2000/svg">
<path d="M17.1719 11.3477C17.3906 11.3477 17.6094 11.5664 17.6094 11.7852V12.6602C17.6094 12.9062 17.3906 13.0977 17.1719 13.0977H0.546875C0.300781 13.0977 0.109375 12.9062 0.109375 12.6602V11.7852C0.109375 11.5664 0.300781 11.3477 0.546875 11.3477H17.1719ZM2.29688 8.44922L0.21875 6.17969C0 5.93359 0.0820312 5.55078 0.355469 5.41406L1.47656 4.83984C1.53125 4.8125 1.61328 4.78516 1.69531 4.78516C1.75 4.78516 1.83203 4.8125 1.91406 4.83984L3.88281 5.85156L6.69922 4.40234L2.43359 1.72266C2.21484 1.47656 2.26953 1.09375 2.57031 0.957031L4.375 0.0273438C4.42969 0 4.51172 0 4.59375 0C4.70312 0 4.78516 0.0273438 4.86719 0.0820312L10.8555 2.32422L13.5352 0.957031C14.2734 0.574219 15.0938 0.355469 15.8867 0.410156C16.8164 0.464844 17.2812 0.765625 17.5 1.17578C17.6914 1.55859 17.6367 2.13281 17.1445 2.89844C16.6797 3.60938 16.0234 4.12891 15.3125 4.51172L7.35547 8.53125C7.10938 8.66797 6.83594 8.72266 6.53516 8.72266H2.95312C2.70703 8.72266 2.46094 8.64062 2.29688 8.44922Z" fill="#9CA3AF"/>
</svg>
