<svg width="18" height="20" viewBox="0 0 18 20" fill="none" xmlns="http://www.w3.org/2000/svg">
<path d="M17.1875 14.1797C17.4219 14.4141 17.5391 14.7266 17.5391 15C17.5 15.6641 17.0312 16.25 16.25 16.25H1.28906C0.507812 16.25 0.0390625 15.6641 0.0390625 15C0 14.7266 0.117188 14.4141 0.351562 14.1797C1.09375 13.3594 2.53906 12.1484 2.53906 8.125C2.53906 5.11719 4.64844 2.69531 7.53906 2.07031V1.25C7.53906 0.585938 8.08594 0 8.78906 0C9.45312 0 10 0.585938 10 1.25V2.07031C12.8906 2.69531 15 5.11719 15 8.125C15 12.1484 16.4453 13.3594 17.1875 14.1797ZM2.65625 14.375H14.8828C14.0625 13.3203 13.1641 11.4844 13.125 8.16406C13.125 8.16406 13.1641 8.16406 13.1641 8.125C13.1641 5.74219 11.1719 3.75 8.78906 3.75C6.36719 3.75 4.41406 5.74219 4.41406 8.125C4.41406 8.16406 4.41406 8.16406 4.41406 8.16406C4.375 11.4844 3.47656 13.3203 2.65625 14.375ZM8.78906 20C7.38281 20 6.28906 18.9062 6.28906 17.5H11.25C11.25 18.9062 10.1562 20 8.78906 20Z" fill="#6B7280"/>
</svg>
